# xmcd CD database file
#
# Track frame offsets:
#	150
#	26423
#	44853
#	69972
#	92219
#	112043
#	132697
#
# Disc length: 1960 seconds
#
# Revision: 0
# Processed by: cddbd v1.5.1PL0 Copyright (c) Steve Scherf et al.
# Submitted via: CDex 1.51
#
DISCID=6607a607
DTITLE=Various Artist - 98.9 Smooth Jazz KWJZ
DYEAR=2005
DGENRE=Jazz
TTITLE0=KWJZ Introduction
TTITLE1=Marion Meadows - Players Club - Sweet Grapes
TTITLE2=Dan Siegel - Inside Out - Inside Out
TTITLE3=Grady Nichols - Sophistication - Sneak
TTITLE4=Ken Navarro - All The Way - In The Sky Today
TTITLE5=Everette Harp - All For You - Can You Hear Me
TTITLE6=Chris Botti - Streets Ahead - Miami Over Night
EXTD=YEAR: 2005
EXTT0=
EXTT1=
EXTT2=
EXTT3=
EXTT4=
EXTT5=
EXTT6=
PLAYORDER=
